<svg width="33" height="35" viewBox="0 0 33 35" fill="none" xmlns="http://www.w3.org/2000/svg">
<mask id="path-1-outside-1_7803_7674" maskUnits="userSpaceOnUse" x="0" y="0" width="33" height="35" fill="black">
<rect fill="white" width="33" height="35"/>
<path d="M16.5005 8.98912C18.9069 8.98912 21.0862 9.96475 22.6642 11.5417C24.2411 13.1197 25.2167 15.298 25.2167 17.7054C25.2167 20.1117 24.2411 22.291 22.6642 23.869C21.0862 25.446 18.9069 26.4216 16.5005 26.4216C14.0942 26.4216 11.9148 25.446 10.3369 23.869C8.75888 22.291 7.78428 20.1117 7.78428 17.7054C7.78428 15.298 8.75991 13.1197 10.3369 11.5417C11.9148 9.96372 14.0942 8.98912 16.5005 8.98912ZM16.5005 13.3396C17.7062 13.3396 18.7974 13.8284 19.588 14.6179C20.3785 15.4084 20.8673 16.4996 20.8673 17.7054C20.8673 18.9111 20.3785 20.0023 19.588 20.7928C18.7985 21.5833 17.7062 22.0722 16.5005 22.0722C15.2948 22.0722 14.2036 21.5833 13.4131 20.7928C12.6225 20.0033 12.1337 18.9111 12.1337 17.7054C12.1337 16.4996 12.6225 15.4084 13.4131 14.6179C14.2026 13.8284 15.2948 13.3396 16.5005 13.3396ZM18.4804 15.7255C17.9732 15.2192 17.2737 14.9053 16.5005 14.9053C15.7274 14.9053 15.0268 15.2182 14.5206 15.7255C14.0144 16.2317 13.7004 16.9322 13.7004 17.7054C13.7004 18.4785 14.0134 19.179 14.5206 19.6852C15.0279 20.1915 15.7274 20.5054 16.5005 20.5054C17.2737 20.5054 17.9742 20.1925 18.4804 19.6852C18.9866 19.178 19.3006 18.4785 19.3006 17.7054C19.3006 16.9322 18.9876 16.2317 18.4804 15.7255ZM21.9739 5.71452C22.3625 5.89246 22.7347 6.0837 23.0896 6.28926C23.4506 6.49789 23.8024 6.72492 24.144 6.96934C24.3454 7.11354 24.5663 7.19535 24.7913 7.21376C25.0183 7.23319 25.2515 7.18921 25.4745 7.08081L25.7291 6.95809C26.5789 6.54697 27.5126 6.49789 28.3533 6.75662C29.1919 7.01434 29.9364 7.57987 30.4099 8.39801L30.4109 8.39699L30.9631 9.35319L30.9867 9.39716L31.5154 10.3125C31.9879 11.1306 32.1055 12.0582 31.9091 12.9131C31.7128 13.7691 31.2024 14.5535 30.4201 15.0853L30.1859 15.2448C29.9824 15.3829 29.828 15.5629 29.7318 15.7674L29.7175 15.797C29.6326 15.9934 29.5979 16.2153 29.6204 16.4505C29.6408 16.6643 29.6551 16.8729 29.6654 17.0764C29.6766 17.3157 29.6828 17.5254 29.6828 17.7043C29.6828 17.8833 29.6766 18.0929 29.6654 18.3323C29.6562 18.5358 29.6408 18.7444 29.6204 18.9581C29.5969 19.2066 29.6367 19.4408 29.7318 19.6443C29.827 19.8468 29.9814 20.0248 30.1859 20.1649L30.4201 20.3244C31.2024 20.8562 31.7138 21.6406 31.9091 22.4966C32.1055 23.3515 31.9879 24.2801 31.5154 25.0972L30.9621 26.0555L30.9631 26.0565L30.4109 27.0127L30.3812 27.0597C29.9067 27.8513 29.1745 28.4005 28.3533 28.6531C27.5126 28.9118 26.5789 28.8627 25.7291 28.4516L25.4745 28.3289C25.2515 28.2205 25.0183 28.1775 24.7913 28.1959C24.5663 28.2154 24.3454 28.2972 24.144 28.4403C23.8014 28.6848 23.4496 28.9118 23.0886 29.1204C22.7337 29.326 22.3614 29.5182 21.9728 29.6952C21.7489 29.7974 21.5679 29.9488 21.438 30.1349C21.3101 30.319 21.2314 30.5419 21.214 30.7874L21.1936 31.0676C21.125 32.0105 20.6996 32.845 20.0553 33.4433C19.41 34.0436 18.5469 34.4076 17.604 34.4076H15.396C14.4531 34.4076 13.59 34.0436 12.9447 33.4433C12.3004 32.845 11.875 32.0095 11.8064 31.0676L11.786 30.7874C11.7686 30.5409 11.6899 30.319 11.562 30.1339C11.4321 29.9478 11.2511 29.7964 11.0272 29.6941C10.6386 29.5162 10.2663 29.325 9.91143 29.1194C9.55043 28.9108 9.19863 28.6837 8.85604 28.4393C8.65457 28.2951 8.43367 28.2133 8.20868 28.1949C7.98267 28.1755 7.74848 28.2194 7.52554 28.3268L7.27089 28.4506C6.42105 28.8617 5.48735 28.9108 4.64672 28.652C3.80813 28.3943 3.06362 27.8288 2.59012 27.0106L2.5891 27.0117L2.03686 26.0555L2.01334 26.0115L1.48462 25.0962C1.01214 24.2781 0.894533 23.3505 1.09089 22.4956C1.28724 21.6396 1.79755 20.8552 2.5799 20.3234L2.81409 20.1639C3.0176 20.0258 3.17202 19.8458 3.26816 19.6413C3.36429 19.4378 3.40315 19.2046 3.37963 18.9581C3.35917 18.7444 3.34486 18.5358 3.33463 18.3323C3.32338 18.0929 3.31724 17.8833 3.31724 17.7043C3.31724 17.5254 3.32338 17.3157 3.33463 17.0764C3.34383 16.8729 3.35917 16.6643 3.37963 16.4505C3.40315 16.203 3.36429 15.9699 3.26918 15.7664H3.26816C3.17202 15.5618 3.0176 15.3818 2.81409 15.2438L2.5799 15.0842C1.79755 14.5525 1.28622 13.7681 1.09089 12.9121C0.894533 12.0571 1.01214 11.1285 1.48462 10.3114L2.03788 9.35319L2.03686 9.35217L2.5891 8.39597L2.61876 8.34892C3.09328 7.55738 3.82551 7.0082 4.64672 6.7556C5.48735 6.49686 6.42105 6.54595 7.27089 6.95707L7.52554 7.08081C7.74848 7.18819 7.98165 7.23216 8.20868 7.21273C8.43367 7.1933 8.65457 7.11149 8.85604 6.96832C9.19761 6.7239 9.55043 6.49789 9.91041 6.28824C10.2663 6.08268 10.6386 5.89042 11.0272 5.7135C11.2511 5.61123 11.4321 5.45987 11.562 5.27375C11.6899 5.08967 11.7686 4.86672 11.786 4.62026L11.8064 4.34005C11.875 3.39714 12.3004 2.56264 12.9447 1.96438C13.59 1.36407 14.4521 1 15.396 1H17.604C18.5469 1 19.41 1.36407 20.0553 1.96438C20.6996 2.56264 21.125 3.39817 21.1936 4.34005L21.214 4.62026C21.2314 4.86672 21.3101 5.08864 21.438 5.27375C21.5679 5.45987 21.7489 5.61123 21.9728 5.7135L21.9739 5.71452ZM22.3072 7.64123C21.9831 7.45409 21.6558 7.28432 21.3255 7.13399C20.8377 6.91002 20.4398 6.57868 20.1545 6.16859C19.8682 5.75543 19.6943 5.26761 19.6555 4.73275L19.635 4.45254C19.5961 3.91973 19.3558 3.44828 18.9917 3.10977C18.6287 2.77229 18.1409 2.56878 17.605 2.56878H15.397C14.8612 2.56878 14.3723 2.77331 14.0103 3.10977C13.6462 3.44828 13.4059 3.91973 13.367 4.45254L13.3466 4.73275C13.3077 5.26659 13.1339 5.75543 12.8475 6.16859C12.5622 6.57868 12.1644 6.91105 11.6766 7.13399C11.3473 7.28432 11.019 7.45409 10.6948 7.64123C10.3716 7.82838 10.0607 8.02883 9.76212 8.24154C9.32544 8.55244 8.83763 8.7314 8.33754 8.77333C7.8395 8.81526 7.33021 8.72118 6.84751 8.48801L6.59286 8.36426C6.11016 8.13109 5.58144 8.10246 5.1059 8.2487C4.6416 8.39085 4.22947 8.6997 3.96153 9.14252L3.94107 9.18036L3.38883 10.1366L3.38781 10.1355L2.83659 11.0897C2.56967 11.553 2.5032 12.0796 2.61467 12.5654C2.72614 13.0512 3.01453 13.496 3.4553 13.7957L3.6895 13.9552C4.13334 14.2559 4.46877 14.6506 4.68149 15.1027H4.68047L4.68149 15.1057C4.89523 15.5598 4.9842 16.0681 4.93409 16.5988C4.91773 16.7747 4.90443 16.9598 4.89523 17.1521C4.88807 17.3045 4.88398 17.4896 4.88398 17.7074C4.88398 17.9252 4.88807 18.1093 4.89523 18.2627C4.90443 18.455 4.91773 18.6391 4.93409 18.816C4.9842 19.3478 4.89523 19.8581 4.68149 20.3121C4.46877 20.7642 4.13231 21.1579 3.6895 21.4596L3.4553 21.6191C3.01453 21.9188 2.72614 22.3636 2.61467 22.8494C2.5032 23.3352 2.56967 23.8618 2.83659 24.3251L3.36326 25.2373L3.38781 25.2782L3.94005 26.2344L3.93903 26.2355L3.94005 26.2375C4.20697 26.6998 4.62933 27.0199 5.10488 27.1651C5.58042 27.3113 6.10914 27.2827 6.59184 27.0495L6.84649 26.9258C7.32919 26.6926 7.83848 26.5985 8.33652 26.6404C8.83763 26.6824 9.32442 26.8613 9.7611 27.1722C10.0597 27.3849 10.3706 27.5854 10.6938 27.7725C11.018 27.9597 11.3452 28.1295 11.6745 28.2798C12.1623 28.5027 12.5602 28.8351 12.8455 29.2452C13.1318 29.6583 13.3057 30.1462 13.3445 30.681L13.365 30.9612C13.4039 31.494 13.6442 31.9655 14.0083 32.304C14.3713 32.6415 14.8591 32.845 15.395 32.845H17.603C18.1388 32.845 18.6277 32.6405 18.9897 32.304C19.3538 31.9655 19.5941 31.494 19.633 30.9612L19.6534 30.681C19.6923 30.1472 19.8661 29.6583 20.1535 29.2452C20.4388 28.8341 20.8366 28.5027 21.3245 28.2798C21.6538 28.1295 21.982 27.9597 22.3052 27.7725C22.6284 27.5854 22.9393 27.3849 23.2389 27.1722C23.6756 26.8613 24.1624 26.6824 24.6635 26.6404C25.1625 26.5985 25.6708 26.6926 26.1535 26.9258L26.4082 27.0485C26.8909 27.2817 27.4196 27.3103 27.8951 27.164C28.3594 27.0219 28.7716 26.7131 29.0395 26.2702L29.0599 26.2324L29.6122 25.2762L29.6132 25.2772L30.1644 24.3231C30.4314 23.8598 30.4978 23.3331 30.3864 22.8473C30.2749 22.3616 29.9865 21.9167 29.5457 21.6171L29.3105 21.4575C28.8687 21.1569 28.5323 20.7621 28.3185 20.307C28.1048 19.853 28.0158 19.3437 28.0659 18.8139C28.0823 18.637 28.0956 18.4529 28.1048 18.2607C28.1119 18.1083 28.116 17.9232 28.116 17.7064C28.116 17.4885 28.1119 17.3045 28.1048 17.1511C28.0956 16.9588 28.0823 16.7747 28.0659 16.5978C28.0168 16.0854 28.0997 15.5925 28.297 15.1507L28.3185 15.1016C28.5312 14.6496 28.8677 14.2559 29.3105 13.9542L29.5447 13.7947C29.9855 13.495 30.2739 13.0501 30.3853 12.5644C30.4968 12.0786 30.4303 11.5519 30.1634 11.0887L29.6367 10.1764L29.6122 10.1355L29.0599 9.17933L29.061 9.17831L29.0599 9.17627C28.793 8.71402 28.3707 8.39494 27.8951 8.2487C27.4196 8.10246 26.8909 8.13109 26.4082 8.36426L26.1535 8.48801C25.6708 8.72118 25.1615 8.81526 24.6635 8.77333C24.1634 8.7314 23.6756 8.55244 23.2389 8.24154C22.9403 8.02883 22.6294 7.82838 22.3062 7.64123H22.3072ZM21.5576 12.6493C20.2639 11.3556 18.4763 10.5548 16.5015 10.5548C14.5268 10.5548 12.7391 11.3546 11.4454 12.6493C10.1518 13.9429 9.35101 15.7306 9.35101 17.7054C9.35101 19.6801 10.1507 21.4678 11.4454 22.7614C12.7391 24.0551 14.5268 24.8559 16.5015 24.8559C18.4763 24.8559 20.2639 24.0551 21.5576 22.7614C22.8513 21.4678 23.6521 19.6801 23.6521 17.7054C23.6521 15.7306 22.8523 13.9429 21.5576 12.6493Z"/>
</mask>
<path d="M16.5005 8.98912C18.9069 8.98912 21.0862 9.96475 22.6642 11.5417C24.2411 13.1197 25.2167 15.298 25.2167 17.7054C25.2167 20.1117 24.2411 22.291 22.6642 23.869C21.0862 25.446 18.9069 26.4216 16.5005 26.4216C14.0942 26.4216 11.9148 25.446 10.3369 23.869C8.75888 22.291 7.78428 20.1117 7.78428 17.7054C7.78428 15.298 8.75991 13.1197 10.3369 11.5417C11.9148 9.96372 14.0942 8.98912 16.5005 8.98912ZM16.5005 13.3396C17.7062 13.3396 18.7974 13.8284 19.588 14.6179C20.3785 15.4084 20.8673 16.4996 20.8673 17.7054C20.8673 18.9111 20.3785 20.0023 19.588 20.7928C18.7985 21.5833 17.7062 22.0722 16.5005 22.0722C15.2948 22.0722 14.2036 21.5833 13.4131 20.7928C12.6225 20.0033 12.1337 18.9111 12.1337 17.7054C12.1337 16.4996 12.6225 15.4084 13.4131 14.6179C14.2026 13.8284 15.2948 13.3396 16.5005 13.3396ZM18.4804 15.7255C17.9732 15.2192 17.2737 14.9053 16.5005 14.9053C15.7274 14.9053 15.0268 15.2182 14.5206 15.7255C14.0144 16.2317 13.7004 16.9322 13.7004 17.7054C13.7004 18.4785 14.0134 19.179 14.5206 19.6852C15.0279 20.1915 15.7274 20.5054 16.5005 20.5054C17.2737 20.5054 17.9742 20.1925 18.4804 19.6852C18.9866 19.178 19.3006 18.4785 19.3006 17.7054C19.3006 16.9322 18.9876 16.2317 18.4804 15.7255ZM21.9739 5.71452C22.3625 5.89246 22.7347 6.0837 23.0896 6.28926C23.4506 6.49789 23.8024 6.72492 24.144 6.96934C24.3454 7.11354 24.5663 7.19535 24.7913 7.21376C25.0183 7.23319 25.2515 7.18921 25.4745 7.08081L25.7291 6.95809C26.5789 6.54697 27.5126 6.49789 28.3533 6.75662C29.1919 7.01434 29.9364 7.57987 30.4099 8.39801L30.4109 8.39699L30.9631 9.35319L30.9867 9.39716L31.5154 10.3125C31.9879 11.1306 32.1055 12.0582 31.9091 12.9131C31.7128 13.7691 31.2024 14.5535 30.4201 15.0853L30.1859 15.2448C29.9824 15.3829 29.828 15.5629 29.7318 15.7674L29.7175 15.797C29.6326 15.9934 29.5979 16.2153 29.6204 16.4505C29.6408 16.6643 29.6551 16.8729 29.6654 17.0764C29.6766 17.3157 29.6828 17.5254 29.6828 17.7043C29.6828 17.8833 29.6766 18.0929 29.6654 18.3323C29.6562 18.5358 29.6408 18.7444 29.6204 18.9581C29.5969 19.2066 29.6367 19.4408 29.7318 19.6443C29.827 19.8468 29.9814 20.0248 30.1859 20.1649L30.4201 20.3244C31.2024 20.8562 31.7138 21.6406 31.9091 22.4966C32.1055 23.3515 31.9879 24.2801 31.5154 25.0972L30.9621 26.0555L30.9631 26.0565L30.4109 27.0127L30.3812 27.0597C29.9067 27.8513 29.1745 28.4005 28.3533 28.6531C27.5126 28.9118 26.5789 28.8627 25.7291 28.4516L25.4745 28.3289C25.2515 28.2205 25.0183 28.1775 24.7913 28.1959C24.5663 28.2154 24.3454 28.2972 24.144 28.4403C23.8014 28.6848 23.4496 28.9118 23.0886 29.1204C22.7337 29.326 22.3614 29.5182 21.9728 29.6952C21.7489 29.7974 21.5679 29.9488 21.438 30.1349C21.3101 30.319 21.2314 30.5419 21.214 30.7874L21.1936 31.0676C21.125 32.0105 20.6996 32.845 20.0553 33.4433C19.41 34.0436 18.5469 34.4076 17.604 34.4076H15.396C14.4531 34.4076 13.59 34.0436 12.9447 33.4433C12.3004 32.845 11.875 32.0095 11.8064 31.0676L11.786 30.7874C11.7686 30.5409 11.6899 30.319 11.562 30.1339C11.4321 29.9478 11.2511 29.7964 11.0272 29.6941C10.6386 29.5162 10.2663 29.325 9.91143 29.1194C9.55043 28.9108 9.19863 28.6837 8.85604 28.4393C8.65457 28.2951 8.43367 28.2133 8.20868 28.1949C7.98267 28.1755 7.74848 28.2194 7.52554 28.3268L7.27089 28.4506C6.42105 28.8617 5.48735 28.9108 4.64672 28.652C3.80813 28.3943 3.06362 27.8288 2.59012 27.0106L2.5891 27.0117L2.03686 26.0555L2.01334 26.0115L1.48462 25.0962C1.01214 24.2781 0.894533 23.3505 1.09089 22.4956C1.28724 21.6396 1.79755 20.8552 2.5799 20.3234L2.81409 20.1639C3.0176 20.0258 3.17202 19.8458 3.26816 19.6413C3.36429 19.4378 3.40315 19.2046 3.37963 18.9581C3.35917 18.7444 3.34486 18.5358 3.33463 18.3323C3.32338 18.0929 3.31724 17.8833 3.31724 17.7043C3.31724 17.5254 3.32338 17.3157 3.33463 17.0764C3.34383 16.8729 3.35917 16.6643 3.37963 16.4505C3.40315 16.203 3.36429 15.9699 3.26918 15.7664H3.26816C3.17202 15.5618 3.0176 15.3818 2.81409 15.2438L2.5799 15.0842C1.79755 14.5525 1.28622 13.7681 1.09089 12.9121C0.894533 12.0571 1.01214 11.1285 1.48462 10.3114L2.03788 9.35319L2.03686 9.35217L2.5891 8.39597L2.61876 8.34892C3.09328 7.55738 3.82551 7.0082 4.64672 6.7556C5.48735 6.49686 6.42105 6.54595 7.27089 6.95707L7.52554 7.08081C7.74848 7.18819 7.98165 7.23216 8.20868 7.21273C8.43367 7.1933 8.65457 7.11149 8.85604 6.96832C9.19761 6.7239 9.55043 6.49789 9.91041 6.28824C10.2663 6.08268 10.6386 5.89042 11.0272 5.7135C11.2511 5.61123 11.4321 5.45987 11.562 5.27375C11.6899 5.08967 11.7686 4.86672 11.786 4.62026L11.8064 4.34005C11.875 3.39714 12.3004 2.56264 12.9447 1.96438C13.59 1.36407 14.4521 1 15.396 1H17.604C18.5469 1 19.41 1.36407 20.0553 1.96438C20.6996 2.56264 21.125 3.39817 21.1936 4.34005L21.214 4.62026C21.2314 4.86672 21.3101 5.08864 21.438 5.27375C21.5679 5.45987 21.7489 5.61123 21.9728 5.7135L21.9739 5.71452ZM22.3072 7.64123C21.9831 7.45409 21.6558 7.28432 21.3255 7.13399C20.8377 6.91002 20.4398 6.57868 20.1545 6.16859C19.8682 5.75543 19.6943 5.26761 19.6555 4.73275L19.635 4.45254C19.5961 3.91973 19.3558 3.44828 18.9917 3.10977C18.6287 2.77229 18.1409 2.56878 17.605 2.56878H15.397C14.8612 2.56878 14.3723 2.77331 14.0103 3.10977C13.6462 3.44828 13.4059 3.91973 13.367 4.45254L13.3466 4.73275C13.3077 5.26659 13.1339 5.75543 12.8475 6.16859C12.5622 6.57868 12.1644 6.91105 11.6766 7.13399C11.3473 7.28432 11.019 7.45409 10.6948 7.64123C10.3716 7.82838 10.0607 8.02883 9.76212 8.24154C9.32544 8.55244 8.83763 8.7314 8.33754 8.77333C7.8395 8.81526 7.33021 8.72118 6.84751 8.48801L6.59286 8.36426C6.11016 8.13109 5.58144 8.10246 5.1059 8.2487C4.6416 8.39085 4.22947 8.6997 3.96153 9.14252L3.94107 9.18036L3.38883 10.1366L3.38781 10.1355L2.83659 11.0897C2.56967 11.553 2.5032 12.0796 2.61467 12.5654C2.72614 13.0512 3.01453 13.496 3.4553 13.7957L3.6895 13.9552C4.13334 14.2559 4.46877 14.6506 4.68149 15.1027H4.68047L4.68149 15.1057C4.89523 15.5598 4.9842 16.0681 4.93409 16.5988C4.91773 16.7747 4.90443 16.9598 4.89523 17.1521C4.88807 17.3045 4.88398 17.4896 4.88398 17.7074C4.88398 17.9252 4.88807 18.1093 4.89523 18.2627C4.90443 18.455 4.91773 18.6391 4.93409 18.816C4.9842 19.3478 4.89523 19.8581 4.68149 20.3121C4.46877 20.7642 4.13231 21.1579 3.6895 21.4596L3.4553 21.6191C3.01453 21.9188 2.72614 22.3636 2.61467 22.8494C2.5032 23.3352 2.56967 23.8618 2.83659 24.3251L3.36326 25.2373L3.38781 25.2782L3.94005 26.2344L3.93903 26.2355L3.94005 26.2375C4.20697 26.6998 4.62933 27.0199 5.10488 27.1651C5.58042 27.3113 6.10914 27.2827 6.59184 27.0495L6.84649 26.9258C7.32919 26.6926 7.83848 26.5985 8.33652 26.6404C8.83763 26.6824 9.32442 26.8613 9.7611 27.1722C10.0597 27.3849 10.3706 27.5854 10.6938 27.7725C11.018 27.9597 11.3452 28.1295 11.6745 28.2798C12.1623 28.5027 12.5602 28.8351 12.8455 29.2452C13.1318 29.6583 13.3057 30.1462 13.3445 30.681L13.365 30.9612C13.4039 31.494 13.6442 31.9655 14.0083 32.304C14.3713 32.6415 14.8591 32.845 15.395 32.845H17.603C18.1388 32.845 18.6277 32.6405 18.9897 32.304C19.3538 31.9655 19.5941 31.494 19.633 30.9612L19.6534 30.681C19.6923 30.1472 19.8661 29.6583 20.1535 29.2452C20.4388 28.8341 20.8366 28.5027 21.3245 28.2798C21.6538 28.1295 21.982 27.9597 22.3052 27.7725C22.6284 27.5854 22.9393 27.3849 23.2389 27.1722C23.6756 26.8613 24.1624 26.6824 24.6635 26.6404C25.1625 26.5985 25.6708 26.6926 26.1535 26.9258L26.4082 27.0485C26.8909 27.2817 27.4196 27.3103 27.8951 27.164C28.3594 27.0219 28.7716 26.7131 29.0395 26.2702L29.0599 26.2324L29.6122 25.2762L29.6132 25.2772L30.1644 24.3231C30.4314 23.8598 30.4978 23.3331 30.3864 22.8473C30.2749 22.3616 29.9865 21.9167 29.5457 21.6171L29.3105 21.4575C28.8687 21.1569 28.5323 20.7621 28.3185 20.307C28.1048 19.853 28.0158 19.3437 28.0659 18.8139C28.0823 18.637 28.0956 18.4529 28.1048 18.2607C28.1119 18.1083 28.116 17.9232 28.116 17.7064C28.116 17.4885 28.1119 17.3045 28.1048 17.1511C28.0956 16.9588 28.0823 16.7747 28.0659 16.5978C28.0168 16.0854 28.0997 15.5925 28.297 15.1507L28.3185 15.1016C28.5312 14.6496 28.8677 14.2559 29.3105 13.9542L29.5447 13.7947C29.9855 13.495 30.2739 13.0501 30.3853 12.5644C30.4968 12.0786 30.4303 11.5519 30.1634 11.0887L29.6367 10.1764L29.6122 10.1355L29.0599 9.17933L29.061 9.17831L29.0599 9.17627C28.793 8.71402 28.3707 8.39494 27.8951 8.2487C27.4196 8.10246 26.8909 8.13109 26.4082 8.36426L26.1535 8.48801C25.6708 8.72118 25.1615 8.81526 24.6635 8.77333C24.1634 8.7314 23.6756 8.55244 23.2389 8.24154C22.9403 8.02883 22.6294 7.82838 22.3062 7.64123H22.3072ZM21.5576 12.6493C20.2639 11.3556 18.4763 10.5548 16.5015 10.5548C14.5268 10.5548 12.7391 11.3546 11.4454 12.6493C10.1518 13.9429 9.35101 15.7306 9.35101 17.7054C9.35101 19.6801 10.1507 21.4678 11.4454 22.7614C12.7391 24.0551 14.5268 24.8559 16.5015 24.8559C18.4763 24.8559 20.2639 24.0551 21.5576 22.7614C22.8513 21.4678 23.6521 19.6801 23.6521 17.7054C23.6521 15.7306 22.8523 13.9429 21.5576 12.6493Z" fill="#FEFEFE"/>
<path d="M16.5005 8.98912C18.9069 8.98912 21.0862 9.96475 22.6642 11.5417C24.2411 13.1197 25.2167 15.298 25.2167 17.7054C25.2167 20.1117 24.2411 22.291 22.6642 23.869C21.0862 25.446 18.9069 26.4216 16.5005 26.4216C14.0942 26.4216 11.9148 25.446 10.3369 23.869C8.75888 22.291 7.78428 20.1117 7.78428 17.7054C7.78428 15.298 8.75991 13.1197 10.3369 11.5417C11.9148 9.96372 14.0942 8.98912 16.5005 8.98912ZM16.5005 13.3396C17.7062 13.3396 18.7974 13.8284 19.588 14.6179C20.3785 15.4084 20.8673 16.4996 20.8673 17.7054C20.8673 18.9111 20.3785 20.0023 19.588 20.7928C18.7985 21.5833 17.7062 22.0722 16.5005 22.0722C15.2948 22.0722 14.2036 21.5833 13.4131 20.7928C12.6225 20.0033 12.1337 18.9111 12.1337 17.7054C12.1337 16.4996 12.6225 15.4084 13.4131 14.6179C14.2026 13.8284 15.2948 13.3396 16.5005 13.3396ZM18.4804 15.7255C17.9732 15.2192 17.2737 14.9053 16.5005 14.9053C15.7274 14.9053 15.0268 15.2182 14.5206 15.7255C14.0144 16.2317 13.7004 16.9322 13.7004 17.7054C13.7004 18.4785 14.0134 19.179 14.5206 19.6852C15.0279 20.1915 15.7274 20.5054 16.5005 20.5054C17.2737 20.5054 17.9742 20.1925 18.4804 19.6852C18.9866 19.178 19.3006 18.4785 19.3006 17.7054C19.3006 16.9322 18.9876 16.2317 18.4804 15.7255ZM21.9739 5.71452C22.3625 5.89246 22.7347 6.0837 23.0896 6.28926C23.4506 6.49789 23.8024 6.72492 24.144 6.96934C24.3454 7.11354 24.5663 7.19535 24.7913 7.21376C25.0183 7.23319 25.2515 7.18921 25.4745 7.08081L25.7291 6.95809C26.5789 6.54697 27.5126 6.49789 28.3533 6.75662C29.1919 7.01434 29.9364 7.57987 30.4099 8.39801L30.4109 8.39699L30.9631 9.35319L30.9867 9.39716L31.5154 10.3125C31.9879 11.1306 32.1055 12.0582 31.9091 12.9131C31.7128 13.7691 31.2024 14.5535 30.4201 15.0853L30.1859 15.2448C29.9824 15.3829 29.828 15.5629 29.7318 15.7674L29.7175 15.797C29.6326 15.9934 29.5979 16.2153 29.6204 16.4505C29.6408 16.6643 29.6551 16.8729 29.6654 17.0764C29.6766 17.3157 29.6828 17.5254 29.6828 17.7043C29.6828 17.8833 29.6766 18.0929 29.6654 18.3323C29.6562 18.5358 29.6408 18.7444 29.6204 18.9581C29.5969 19.2066 29.6367 19.4408 29.7318 19.6443C29.827 19.8468 29.9814 20.0248 30.1859 20.1649L30.4201 20.3244C31.2024 20.8562 31.7138 21.6406 31.9091 22.4966C32.1055 23.3515 31.9879 24.2801 31.5154 25.0972L30.9621 26.0555L30.9631 26.0565L30.4109 27.0127L30.3812 27.0597C29.9067 27.8513 29.1745 28.4005 28.3533 28.6531C27.5126 28.9118 26.5789 28.8627 25.7291 28.4516L25.4745 28.3289C25.2515 28.2205 25.0183 28.1775 24.7913 28.1959C24.5663 28.2154 24.3454 28.2972 24.144 28.4403C23.8014 28.6848 23.4496 28.9118 23.0886 29.1204C22.7337 29.326 22.3614 29.5182 21.9728 29.6952C21.7489 29.7974 21.5679 29.9488 21.438 30.1349C21.3101 30.319 21.2314 30.5419 21.214 30.7874L21.1936 31.0676C21.125 32.0105 20.6996 32.845 20.0553 33.4433C19.41 34.0436 18.5469 34.4076 17.604 34.4076H15.396C14.4531 34.4076 13.59 34.0436 12.9447 33.4433C12.3004 32.845 11.875 32.0095 11.8064 31.0676L11.786 30.7874C11.7686 30.5409 11.6899 30.319 11.562 30.1339C11.4321 29.9478 11.2511 29.7964 11.0272 29.6941C10.6386 29.5162 10.2663 29.325 9.91143 29.1194C9.55043 28.9108 9.19863 28.6837 8.85604 28.4393C8.65457 28.2951 8.43367 28.2133 8.20868 28.1949C7.98267 28.1755 7.74848 28.2194 7.52554 28.3268L7.27089 28.4506C6.42105 28.8617 5.48735 28.9108 4.64672 28.652C3.80813 28.3943 3.06362 27.8288 2.59012 27.0106L2.5891 27.0117L2.03686 26.0555L2.01334 26.0115L1.48462 25.0962C1.01214 24.2781 0.894533 23.3505 1.09089 22.4956C1.28724 21.6396 1.79755 20.8552 2.5799 20.3234L2.81409 20.1639C3.0176 20.0258 3.17202 19.8458 3.26816 19.6413C3.36429 19.4378 3.40315 19.2046 3.37963 18.9581C3.35917 18.7444 3.34486 18.5358 3.33463 18.3323C3.32338 18.0929 3.31724 17.8833 3.31724 17.7043C3.31724 17.5254 3.32338 17.3157 3.33463 17.0764C3.34383 16.8729 3.35917 16.6643 3.37963 16.4505C3.40315 16.203 3.36429 15.9699 3.26918 15.7664H3.26816C3.17202 15.5618 3.0176 15.3818 2.81409 15.2438L2.5799 15.0842C1.79755 14.5525 1.28622 13.7681 1.09089 12.9121C0.894533 12.0571 1.01214 11.1285 1.48462 10.3114L2.03788 9.35319L2.03686 9.35217L2.5891 8.39597L2.61876 8.34892C3.09328 7.55738 3.82551 7.0082 4.64672 6.7556C5.48735 6.49686 6.42105 6.54595 7.27089 6.95707L7.52554 7.08081C7.74848 7.18819 7.98165 7.23216 8.20868 7.21273C8.43367 7.1933 8.65457 7.11149 8.85604 6.96832C9.19761 6.7239 9.55043 6.49789 9.91041 6.28824C10.2663 6.08268 10.6386 5.89042 11.0272 5.7135C11.2511 5.61123 11.4321 5.45987 11.562 5.27375C11.6899 5.08967 11.7686 4.86672 11.786 4.62026L11.8064 4.34005C11.875 3.39714 12.3004 2.56264 12.9447 1.96438C13.59 1.36407 14.4521 1 15.396 1H17.604C18.5469 1 19.41 1.36407 20.0553 1.96438C20.6996 2.56264 21.125 3.39817 21.1936 4.34005L21.214 4.62026C21.2314 4.86672 21.3101 5.08864 21.438 5.27375C21.5679 5.45987 21.7489 5.61123 21.9728 5.7135L21.9739 5.71452ZM22.3072 7.64123C21.9831 7.45409 21.6558 7.28432 21.3255 7.13399C20.8377 6.91002 20.4398 6.57868 20.1545 6.16859C19.8682 5.75543 19.6943 5.26761 19.6555 4.73275L19.635 4.45254C19.5961 3.91973 19.3558 3.44828 18.9917 3.10977C18.6287 2.77229 18.1409 2.56878 17.605 2.56878H15.397C14.8612 2.56878 14.3723 2.77331 14.0103 3.10977C13.6462 3.44828 13.4059 3.91973 13.367 4.45254L13.3466 4.73275C13.3077 5.26659 13.1339 5.75543 12.8475 6.16859C12.5622 6.57868 12.1644 6.91105 11.6766 7.13399C11.3473 7.28432 11.019 7.45409 10.6948 7.64123C10.3716 7.82838 10.0607 8.02883 9.76212 8.24154C9.32544 8.55244 8.83763 8.7314 8.33754 8.77333C7.8395 8.81526 7.33021 8.72118 6.84751 8.48801L6.59286 8.36426C6.11016 8.13109 5.58144 8.10246 5.1059 8.2487C4.6416 8.39085 4.22947 8.6997 3.96153 9.14252L3.94107 9.18036L3.38883 10.1366L3.38781 10.1355L2.83659 11.0897C2.56967 11.553 2.5032 12.0796 2.61467 12.5654C2.72614 13.0512 3.01453 13.496 3.4553 13.7957L3.6895 13.9552C4.13334 14.2559 4.46877 14.6506 4.68149 15.1027H4.68047L4.68149 15.1057C4.89523 15.5598 4.9842 16.0681 4.93409 16.5988C4.91773 16.7747 4.90443 16.9598 4.89523 17.1521C4.88807 17.3045 4.88398 17.4896 4.88398 17.7074C4.88398 17.9252 4.88807 18.1093 4.89523 18.2627C4.90443 18.455 4.91773 18.6391 4.93409 18.816C4.9842 19.3478 4.89523 19.8581 4.68149 20.3121C4.46877 20.7642 4.13231 21.1579 3.6895 21.4596L3.4553 21.6191C3.01453 21.9188 2.72614 22.3636 2.61467 22.8494C2.5032 23.3352 2.56967 23.8618 2.83659 24.3251L3.36326 25.2373L3.38781 25.2782L3.94005 26.2344L3.93903 26.2355L3.94005 26.2375C4.20697 26.6998 4.62933 27.0199 5.10488 27.1651C5.58042 27.3113 6.10914 27.2827 6.59184 27.0495L6.84649 26.9258C7.32919 26.6926 7.83848 26.5985 8.33652 26.6404C8.83763 26.6824 9.32442 26.8613 9.7611 27.1722C10.0597 27.3849 10.3706 27.5854 10.6938 27.7725C11.018 27.9597 11.3452 28.1295 11.6745 28.2798C12.1623 28.5027 12.5602 28.8351 12.8455 29.2452C13.1318 29.6583 13.3057 30.1462 13.3445 30.681L13.365 30.9612C13.4039 31.494 13.6442 31.9655 14.0083 32.304C14.3713 32.6415 14.8591 32.845 15.395 32.845H17.603C18.1388 32.845 18.6277 32.6405 18.9897 32.304C19.3538 31.9655 19.5941 31.494 19.633 30.9612L19.6534 30.681C19.6923 30.1472 19.8661 29.6583 20.1535 29.2452C20.4388 28.8341 20.8366 28.5027 21.3245 28.2798C21.6538 28.1295 21.982 27.9597 22.3052 27.7725C22.6284 27.5854 22.9393 27.3849 23.2389 27.1722C23.6756 26.8613 24.1624 26.6824 24.6635 26.6404C25.1625 26.5985 25.6708 26.6926 26.1535 26.9258L26.4082 27.0485C26.8909 27.2817 27.4196 27.3103 27.8951 27.164C28.3594 27.0219 28.7716 26.7131 29.0395 26.2702L29.0599 26.2324L29.6122 25.2762L29.6132 25.2772L30.1644 24.3231C30.4314 23.8598 30.4978 23.3331 30.3864 22.8473C30.2749 22.3616 29.9865 21.9167 29.5457 21.6171L29.3105 21.4575C28.8687 21.1569 28.5323 20.7621 28.3185 20.307C28.1048 19.853 28.0158 19.3437 28.0659 18.8139C28.0823 18.637 28.0956 18.4529 28.1048 18.2607C28.1119 18.1083 28.116 17.9232 28.116 17.7064C28.116 17.4885 28.1119 17.3045 28.1048 17.1511C28.0956 16.9588 28.0823 16.7747 28.0659 16.5978C28.0168 16.0854 28.0997 15.5925 28.297 15.1507L28.3185 15.1016C28.5312 14.6496 28.8677 14.2559 29.3105 13.9542L29.5447 13.7947C29.9855 13.495 30.2739 13.0501 30.3853 12.5644C30.4968 12.0786 30.4303 11.5519 30.1634 11.0887L29.6367 10.1764L29.6122 10.1355L29.0599 9.17933L29.061 9.17831L29.0599 9.17627C28.793 8.71402 28.3707 8.39494 27.8951 8.2487C27.4196 8.10246 26.8909 8.13109 26.4082 8.36426L26.1535 8.48801C25.6708 8.72118 25.1615 8.81526 24.6635 8.77333C24.1634 8.7314 23.6756 8.55244 23.2389 8.24154C22.9403 8.02883 22.6294 7.82838 22.3062 7.64123H22.3072ZM21.5576 12.6493C20.2639 11.3556 18.4763 10.5548 16.5015 10.5548C14.5268 10.5548 12.7391 11.3546 11.4454 12.6493C10.1518 13.9429 9.35101 15.7306 9.35101 17.7054C9.35101 19.6801 10.1507 21.4678 11.4454 22.7614C12.7391 24.0551 14.5268 24.8559 16.5015 24.8559C18.4763 24.8559 20.2639 24.0551 21.5576 22.7614C22.8513 21.4678 23.6521 19.6801 23.6521 17.7054C23.6521 15.7306 22.8523 13.9429 21.5576 12.6493Z" stroke="#FEFEFE" stroke-width="0.6" mask="url(#path-1-outside-1_7803_7674)"/>
</svg>
