<svg width="31" height="29" viewBox="0 0 31 29" fill="none" xmlns="http://www.w3.org/2000/svg">
<path d="M20.2014 7.41243H13.4405L17.8048 3.04269C18.4992 2.34718 18.4992 1.21715 17.8048 0.521634C17.1088 -0.173878 15.9822 -0.173878 15.2878 0.521634L7.8872 7.93437C7.55403 8.26808 7.36598 8.72241 7.36598 9.19491C7.36598 9.66741 7.55401 10.1201 7.8872 10.4555L15.2878 17.8665C15.9822 18.5637 17.1088 18.5637 17.8048 17.8665C18.4992 17.171 18.4992 16.0426 17.8048 15.3454L13.4439 10.9757H20.2048L20.2032 10.9774C22.7811 10.9774 25.1628 12.3552 26.4528 14.5905C27.7426 16.8274 27.7426 19.5832 26.4528 21.8201C25.1629 24.057 22.7812 25.4348 20.2032 25.4348C20.1306 25.4381 20.0597 25.4447 19.9871 25.4563C19.9162 25.4447 19.8452 25.4381 19.7727 25.4348H1.77967C0.796644 25.4348 0 26.2328 0 27.2174C0 28.202 0.796644 29 1.77967 29H19.7727C19.8452 28.9967 19.9162 28.9901 19.9871 28.9785C20.058 28.9901 20.1306 28.9967 20.2015 29C23.0632 29.0049 25.811 27.8716 27.8365 25.8462C29.8619 23.8207 31 21.0717 31 18.2055C31 15.3391 29.8619 12.5919 27.8365 10.5665C25.811 8.54102 23.063 7.40579 20.2014 7.41243Z" fill="white"/>
</svg>
