<svg width="15" height="15" viewBox="0 0 15 15" fill="none" xmlns="http://www.w3.org/2000/svg">
<path d="M0 11.3677C0 12.9256 1.27459 14.2001 2.83242 14.2001H10.1158C11.6736 14.2001 12.9482 12.9256 12.9482 11.3677V6.91678C12.9482 6.47169 12.584 6.10752 12.1389 6.10752C11.6938 6.10752 11.3297 6.47169 11.3297 6.91678V11.3677C11.3297 12.0354 10.7834 12.5816 10.1158 12.5816H2.83242C2.16477 12.5816 1.61852 12.0354 1.61852 11.3677V4.08437C1.61852 3.41673 2.16477 2.87048 2.83242 2.87048H7.28336C7.72845 2.87048 8.09262 2.50631 8.09262 2.06121C8.09262 1.61612 7.72845 1.25195 7.28336 1.25195H2.83242C1.27459 1.25195 0 2.52654 0 4.08437V11.3677Z" fill="#647594"/>
<path d="M14.2478 0.809262C14.2478 0.748567 14.2478 0.708104 14.2276 0.647409C14.2276 0.627178 14.2276 0.627178 14.2074 0.606946C14.2074 0.566483 14.1872 0.52602 14.1669 0.505789C14.1669 0.485557 14.1467 0.465326 14.1467 0.465326C14.1265 0.424863 14.1062 0.404631 14.1062 0.364168C14.0455 0.283242 13.9646 0.202316 13.8837 0.141621C13.8634 0.121389 13.823 0.101158 13.8028 0.101158C13.7825 0.101158 13.7623 0.0809263 13.7421 0.0809263C13.7016 0.0606947 13.6814 0.0606948 13.6409 0.0404632L13.6004 0.0202316C13.56 0.0202316 13.4993 0 13.4588 0H13.4386H9.71598C9.27089 0 8.90672 0.364168 8.90672 0.809262C8.90672 1.25436 9.27089 1.61852 9.71598 1.61852H11.4761L6.25639 6.83826C5.95291 7.16197 5.95291 7.66775 6.27662 7.99146C6.58009 8.29493 7.08588 8.29493 7.38935 7.99146L12.6293 2.77172V4.53187C12.6293 4.97696 12.9935 5.34113 13.4386 5.34113C13.8837 5.34113 14.2478 4.97696 14.2478 4.53187V0.809262Z" fill="#647594"/>
</svg>
